<?xml version="1.0" standalone="no"?>
<!DOCTYPE svg PUBLIC "-//W3C//DTD SVG 20010904//EN"
 "http://www.w3.org/TR/2001/REC-SVG-20010904/DTD/svg10.dtd">
<svg version="1.0" xmlns="http://www.w3.org/2000/svg"
 width="474.000000pt" height="316.000000pt" viewBox="0 0 474.000000 316.000000"
 preserveAspectRatio="xMidYMid meet">
<metadata>
Created by potrace 1.16, written by Peter Selinger 2001-2019
</metadata>
<g transform="translate(0.000000,316.000000) scale(0.100000,-0.100000)"
fill="#000000" stroke="none">
<path d="M2359 2761 c-332 -47 -649 -305 -793 -647 -103 -245 -106 -550 -7
-767 132 -293 397 -457 716 -444 137 5 243 33 372 97 l96 48 57 -29 c137 -70
279 -77 394 -20 78 38 127 90 155 166 17 46 44 174 37 182 -1 1 -39 -17 -85
-40 -71 -35 -95 -42 -157 -45 -85 -5 -144 4 -144 20 0 6 10 25 23 42 86 114
156 273 188 428 27 134 23 333 -10 447 -27 93 -81 202 -137 277 -92 124 -258
234 -404 269 -81 18 -227 26 -301 16z m409 -164 c377 -109 512 -540 309 -981
-50 -107 -167 -276 -192 -276 -22 0 -495 420 -495 440 0 4 17 11 38 14 96 17
229 71 313 127 76 51 160 146 182 205 36 96 31 316 -8 330 -7 3 -39 -23 -71
-57 -33 -34 -111 -100 -174 -148 -137 -103 -318 -226 -324 -220 -2 2 21 71 51
154 29 82 52 159 51 170 -10 71 -224 21 -355 -84 -29 -23 -53 -46 -53 -51 0
-6 16 -10 35 -10 19 0 35 -4 35 -8 0 -5 -36 -99 -79 -210 -89 -228 -125 -352
-142 -498 -11 -95 -6 -208 10 -218 4 -3 73 -8 154 -12 l146 -7 -19 39 c-24 47
-26 133 -5 232 22 106 60 192 85 192 3 0 14 -24 23 -53 25 -79 109 -246 167
-331 27 -41 79 -105 115 -143 36 -37 65 -69 65 -70 0 -9 -167 -84 -225 -103
-98 -31 -295 -39 -385 -16 -108 27 -168 63 -250 145 -122 124 -170 247 -170
441 0 330 190 659 502 871 102 70 231 122 373 152 11 3 63 5 116 6 74 1 116
-4 177 -22z"/>
<path d="M380 874 c0 -7 -68 -382 -75 -411 -5 -21 -2 -23 43 -23 l49 0 18 105
c10 58 22 105 27 105 5 0 32 -47 60 -105 l51 -105 54 0 c30 0 53 3 51 8 -1 4
-30 59 -62 123 l-60 116 67 94 67 94 -32 3 c-36 4 -30 10 -127 -124 -35 -49
-66 -84 -68 -79 -2 6 5 52 15 103 10 51 16 94 14 97 -7 7 -92 6 -92 -1z"/>
<path d="M2247 665 c-59 -119 -107 -218 -107 -220 0 -3 13 -5 29 -5 26 0 33 7
58 58 l28 57 79 0 80 0 7 -30 c4 -16 10 -42 13 -57 6 -25 11 -28 45 -28 21 0
40 2 42 5 3 2 -12 100 -33 217 -21 117 -38 214 -38 216 0 1 -22 2 -48 2 l-48
0 -107 -215z"/>
<path d="M805 753 c-76 -39 -125 -122 -125 -209 0 -102 84 -134 233 -87 41 13
47 18 47 43 l0 28 -50 -19 c-64 -24 -95 -24 -121 2 -28 28 -20 42 30 51 92 16
148 78 142 160 -3 47 -92 65 -156 31z"/>
<path d="M1066 761 c-5 -8 -56 -285 -56 -305 0 -12 10 -16 44 -16 l45 0 12 57
c22 95 127 230 123 158 -1 -11 -8 -62 -18 -113 -9 -50 -16 -94 -16 -97 0 -12
91 -4 94 8 3 6 14 67 27 135 26 142 22 175 -24 180 -40 5 -91 -33 -122 -90
-45 -82 -57 -70 -31 30 10 38 11 52 3 53 -60 6 -78 6 -81 0z"/>
<path d="M1396 761 c-4 -6 6 -82 21 -169 l27 -160 -48 -56 -48 -56 46 0 46 0
53 83 c29 45 62 97 72 114 11 18 48 78 83 134 34 55 62 104 62 109 0 8 -59 6
-64 -2 -1 -2 -16 -25 -33 -53 -17 -27 -43 -70 -58 -93 -14 -24 -29 -41 -32
-38 -3 3 -13 47 -22 98 l-16 93 -42 3 c-23 1 -44 -2 -47 -7z"/>
<path d="M1808 747 c-45 -27 -71 -59 -103 -129 -33 -71 -33 -131 0 -163 29
-30 41 -31 79 -6 26 17 52 50 92 117 26 43 24 -21 -2 -109 -5 -16 0 -18 43
-15 l48 3 28 149 c16 81 26 154 23 162 -4 10 -27 14 -88 14 -68 0 -89 -4 -120
-23z m97 -40 c17 -13 17 -16 -10 -64 -73 -135 -139 -165 -114 -53 13 55 34 95
61 114 27 19 39 20 63 3z"/>
<path d="M2634 759 c-2 -5 -16 -68 -30 -141 -13 -73 -27 -143 -29 -155 -5 -21
-2 -23 43 -23 l48 0 28 153 c16 83 29 157 30 162 1 12 -82 16 -90 4z"/>
<path d="M2795 758 c-5 -14 -55 -297 -55 -311 0 -4 21 -7 47 -5 l47 3 11 55
c17 87 87 180 135 180 21 0 28 8 41 45 17 45 17 45 -6 45 -31 0 -79 -42 -111
-96 -14 -24 -30 -44 -35 -44 -11 0 -11 3 5 72 8 31 11 59 8 62 -11 12 -83 6
-87 -6z"/>
<path d="M3096 762 c-18 -4 -19 -11 -12 -125 3 -66 6 -137 6 -159 l0 -38 48 0
47 0 44 100 c24 55 48 100 53 100 4 0 8 -21 8 -47 0 -27 3 -72 7 -101 l6 -53
45 3 46 3 68 150 c37 83 68 155 68 161 0 9 -22 12 -51 5 -3 0 -25 -46 -49
-101 -25 -55 -47 -100 -51 -100 -9 0 -19 67 -19 136 0 33 -2 63 -4 65 -3 3
-23 3 -44 1 l-39 -4 -44 -99 c-24 -54 -47 -99 -50 -99 -7 0 -16 69 -22 165 -2
42 -12 48 -61 37z"/>
<path d="M3655 758 c-71 -39 -133 -136 -142 -224 -5 -47 -3 -55 21 -79 19 -19
32 -25 49 -20 40 12 72 41 100 93 27 50 47 67 47 40 0 -7 -7 -38 -15 -68 -8
-30 -15 -56 -15 -57 0 -2 22 -3 48 -3 l48 0 28 156 c24 131 26 158 15 165 -20
12 -160 10 -184 -3z m76 -49 c24 -12 19 -33 -19 -94 -53 -83 -100 -119 -103
-77 -4 58 23 134 58 162 29 23 37 24 64 9z"/>
<path d="M3917 763 c-2 -4 8 -80 24 -167 l28 -160 -29 -36 c-16 -20 -36 -43
-45 -50 -25 -21 -17 -30 28 -30 40 0 45 3 70 43 233 371 245 392 229 398 -34
12 -48 0 -103 -86 -30 -49 -60 -90 -66 -92 -5 -2 -18 38 -29 89 l-19 93 -42 3
c-22 2 -43 -1 -46 -5z"/>
<path d="M4318 754 c-64 -34 -65 -94 -3 -164 50 -56 51 -58 32 -85 -11 -14
-22 -17 -53 -13 -21 4 -46 9 -55 13 -21 8 -37 -44 -18 -56 50 -30 171 -15 207
26 37 43 30 87 -23 144 -25 26 -45 55 -45 63 0 27 28 41 70 35 32 -4 40 -2 45
14 4 10 3 23 0 29 -9 15 -126 11 -157 -6z"/>
</g>
</svg>
