<?xml version="1.0" standalone="no"?>
<!DOCTYPE svg PUBLIC "-//W3C//DTD SVG 20010904//EN"
 "http://www.w3.org/TR/2001/REC-SVG-20010904/DTD/svg10.dtd">
<svg version="1.0" xmlns="http://www.w3.org/2000/svg"
 width="500.000000pt" height="500.000000pt" viewBox="0 0 500.000000 500.000000"
 preserveAspectRatio="xMidYMid meet">
<metadata>
Created by potrace 1.16, written by Peter Selinger 2001-2019
</metadata>
<g transform="translate(0.000000,500.000000) scale(0.100000,-0.100000)"
fill="#000000" stroke="none">
<path d="M895 4733 c-11 -2 -30 -6 -42 -9 -13 -2 -23 -10 -23 -18 0 -12 21
-21 118 -46 25 -6 42 -17 42 -25 0 -9 -30 -35 -67 -59 -73 -46 -110 -82 -99
-93 4 -4 57 -10 119 -13 144 -7 146 -13 41 -130 -90 -100 -134 -158 -134 -177
0 -29 64 -12 180 48 68 34 124 58 131 53 8 -5 10 -30 6 -87 -10 -125 11 -144
88 -77 69 60 70 59 89 -70 13 -85 27 -120 47 -120 15 0 37 53 59 141 12 46 28
91 36 99 12 12 19 9 53 -24 22 -21 44 -35 50 -32 5 4 13 23 17 44 9 50 21 72
41 72 9 0 49 -27 89 -60 84 -70 120 -91 141 -83 22 9 12 55 -37 169 -23 53
-40 106 -38 118 4 27 29 25 145 -15 195 -65 211 -20 54 145 -43 44 -83 91 -89
102 -15 29 4 45 97 83 82 33 86 36 76 50 -21 34 -303 -23 -319 -65 -3 -8 24
-47 69 -96 47 -52 75 -91 75 -105 0 -30 -23 -30 -116 3 -40 15 -80 24 -89 21
-23 -9 -18 -57 14 -133 57 -137 53 -142 -46 -54 -88 79 -101 79 -105 -2 -4
-77 -21 -83 -56 -20 -13 23 -29 42 -36 42 -12 0 -27 -38 -41 -107 -7 -33 -31
-61 -42 -49 -4 3 -8 34 -10 69 -6 96 -10 109 -32 98 -10 -6 -33 -33 -51 -61
-41 -64 -65 -68 -56 -7 20 124 20 127 -2 127 -11 0 -50 -14 -87 -31 -96 -45
-101 -28 -15 59 96 98 94 105 -23 117 -36 4 -74 13 -84 20 -17 13 -17 14 1 34
10 11 38 32 62 46 24 14 48 35 54 46 10 17 7 21 -23 34 -28 11 -188 38 -207
34 -3 -1 -14 -3 -25 -6z"/>
<path d="M2880 4711 c0 -18 -5 -41 -10 -51 -10 -19 -13 -18 -75 12 -35 18 -67
29 -71 25 -4 -4 9 -33 29 -66 21 -32 37 -64 37 -70 0 -7 -16 -21 -35 -32 -19
-12 -35 -25 -35 -30 0 -5 18 -18 40 -29 22 -11 40 -27 40 -35 0 -8 -17 -27
-37 -42 -55 -41 -57 -47 -15 -56 20 -4 40 -11 45 -16 5 -5 -6 -36 -23 -71 -17
-34 -30 -66 -28 -72 2 -6 25 8 52 31 26 22 51 41 56 41 14 0 30 -35 30 -64 0
-34 14 -33 40 4 l21 30 62 -32 c55 -29 71 -33 142 -33 67 0 88 5 131 27 107
56 161 159 152 287 -3 39 -14 83 -26 106 -61 118 -205 177 -344 140 -110 -30
-116 -30 -149 1 l-29 28 0 -33z m364 -74 c92 -70 113 -235 43 -338 -49 -73
-163 -103 -244 -62 -83 41 -68 87 16 47 30 -13 56 -22 59 -20 2 3 -1 19 -7 37
-20 59 -18 61 54 54 38 -4 65 -3 65 2 0 5 -18 27 -40 48 -22 21 -40 42 -40 45
0 4 23 17 50 30 28 13 50 27 50 30 0 9 -52 20 -95 20 -42 0 -47 7 -29 42 20
38 13 44 -35 30 -68 -21 -98 -13 -85 21 11 30 66 48 135 45 54 -3 73 -9 103
-31z m-292 -88 c10 -29 12 -30 51 -24 l40 7 -17 -23 c-22 -32 -20 -38 14 -50
40 -14 38 -25 -5 -33 -35 -7 -35 -7 -19 -32 21 -31 13 -39 -25 -26 -26 9 -31
8 -46 -14 -21 -33 -33 -30 -37 9 -2 20 -8 31 -17 29 -7 -1 -22 0 -33 4 -19 6
-19 7 6 33 l26 27 -25 24 c-34 32 -31 40 10 33 31 -5 35 -3 41 23 13 54 21 57
36 13z"/>
<path d="M3869 4711 c-22 -18 -24 -27 -24 -109 0 -96 -10 -122 -49 -122 -12 0
-27 5 -34 12 -15 15 -15 72 0 115 18 50 2 85 -47 101 -67 23 -300 0 -269 -27
5 -4 34 -15 64 -24 60 -18 140 -71 140 -91 0 -8 -20 -16 -53 -19 -65 -8 -121
-27 -110 -37 4 -4 39 -17 76 -30 82 -27 127 -61 127 -98 -1 -77 -90 -89 -155
-22 -15 16 -31 27 -36 25 -4 -3 -5 -23 -2 -44 8 -62 -3 -87 -49 -115 -37 -22
-40 -26 -23 -33 33 -13 315 -9 376 5 82 19 158 68 192 124 24 39 29 57 29 117
1 38 -7 102 -18 140 -18 71 -18 71 3 100 l22 28 -38 12 c-56 16 -96 14 -122
-8z m81 -250 c31 -75 -40 -151 -160 -171 -92 -15 -119 -9 -55 13 90 31 164
114 165 185 0 19 3 21 19 13 10 -6 24 -24 31 -40z"/>
<path d="M1247 4713 c-4 -3 7 -14 23 -24 46 -29 38 -47 -36 -80 -79 -36 -76
-55 6 -39 97 18 114 -5 55 -79 -19 -24 -32 -47 -29 -52 6 -10 35 3 53 24 6 8
25 20 41 27 42 18 58 1 66 -71 8 -72 23 -72 44 -1 8 28 23 59 32 69 17 16 20
14 68 -37 27 -29 53 -50 57 -47 4 4 -1 31 -11 61 -25 72 -20 91 24 91 19 0 47
-4 63 -8 44 -12 33 17 -18 47 -69 41 -77 69 -27 95 34 18 17 31 -43 31 -46 0
-59 -5 -95 -35 -23 -19 -48 -35 -56 -35 -8 0 -31 16 -53 35 -35 32 -44 35 -98
35 -33 0 -63 -3 -66 -7z"/>
<path d="M1890 4275 c0 -29 147 -238 175 -248 16 -7 45 17 45 38 0 7 3 20 6
28 8 21 -48 81 -130 138 -62 44 -96 59 -96 44z"/>
<path d="M971 4104 c-34 -43 -28 -90 17 -134 29 -29 49 -40 84 -45 26 -4 51
-4 57 0 14 8 14 95 0 132 -19 50 -48 73 -95 73 -34 0 -47 -5 -63 -26z"/>
<path d="M3790 4115 c-19 -7 -57 -14 -83 -14 -52 -1 -50 4 -31 -62 9 -33 49
-42 109 -24 70 20 105 49 105 86 0 26 -3 29 -32 28 -18 0 -49 -7 -68 -14z"/>
<path d="M3950 4105 c0 -75 -115 -155 -220 -155 -53 0 -67 -53 -20 -78 31 -16
109 -8 165 17 53 24 122 100 130 144 8 41 -11 90 -38 95 -13 3 -17 -3 -17 -23z"/>
<path d="M2850 4113 c-30 -11 -60 -48 -71 -85 -14 -53 -4 -62 30 -27 22 22 39
29 68 29 55 0 67 -10 51 -44 -11 -25 -10 -29 7 -39 10 -5 29 -21 41 -34 l22
-24 24 30 c28 32 52 106 46 142 -2 17 -9 23 -23 22 -11 -1 -41 6 -67 17 -45
19 -97 24 -128 13z"/>
<path d="M3300 4090 c-25 -11 -62 -19 -82 -19 -55 -1 -68 -10 -68 -42 0 -65
79 -163 159 -196 52 -23 179 -19 235 6 63 27 80 57 66 113 -17 64 -57 128 -80
128 -11 0 -40 -6 -66 -12 -45 -12 -46 -12 -66 15 -23 31 -36 32 -98 7z"/>
<path d="M1665 4065 c-5 -2 -22 -6 -37 -9 -34 -8 -84 -50 -104 -88 -15 -28
-15 -29 5 -19 53 29 80 -11 61 -90 -23 -96 -90 -116 -111 -33 -18 71 -49 54
-49 -27 0 -88 56 -139 153 -139 70 0 117 18 179 71 26 21 49 39 52 39 3 0 6
-10 6 -23 0 -13 12 -46 26 -75 41 -82 104 -115 168 -88 41 17 91 98 51 82 -38
-14 -57 56 -34 123 16 44 42 38 49 -12 6 -44 22 -48 33 -9 18 64 -13 160 -60
181 -58 27 -117 7 -175 -57 l-36 -39 -5 50 c-9 74 -36 118 -87 145 -42 21 -62
25 -85 17z"/>
<path d="M3080 3923 c0 -62 -77 -123 -156 -123 -38 0 -39 4 -19 53 6 15 1 17
-43 17 -35 0 -57 6 -76 21 -15 12 -28 20 -30 18 -30 -35 -35 -151 -10 -205 18
-38 39 -44 49 -13 6 18 11 20 43 13 107 -25 212 9 246 80 18 37 21 132 6 156
-7 11 -10 7 -10 -17z"/>
<path d="M3991 3911 c-12 -17 -43 -43 -68 -58 -45 -26 -147 -56 -157 -45 -3 3
-6 -5 -6 -18 0 -45 85 -160 160 -215 51 -38 84 -44 94 -19 13 34 28 207 25
283 -5 97 -17 115 -48 72z"/>
<path d="M1010 3830 c-81 -27 -124 -80 -146 -176 -9 -41 -13 -78 -9 -82 12
-12 148 -31 179 -25 81 15 150 75 181 157 l18 47 -26 27 c-15 16 -27 35 -27
44 0 32 -89 36 -170 8z"/>
<path d="M3280 3729 c0 -81 46 -192 106 -258 55 -61 121 -86 229 -85 73 0 103
6 159 27 59 23 74 26 102 17 69 -23 123 -95 124 -165 0 -58 -59 -155 -94 -155
-3 0 -13 14 -22 32 -14 27 -15 41 -5 99 22 136 11 148 -69 71 -46 -44 -50 -52
-50 -94 0 -40 5 -50 38 -80 21 -19 53 -41 70 -49 33 -14 39 -28 23 -44 -6 -6
-24 -39 -42 -75 l-32 -65 -10 30 c-24 80 -101 268 -120 296 -12 18 -34 41 -48
51 -27 21 -109 37 -109 22 0 -5 39 -54 86 -109 128 -149 181 -247 172 -320 -3
-27 -6 -22 -40 47 -37 74 -78 123 -185 219 -39 34 -56 60 -73 107 -14 39 -35
72 -53 88 l-31 26 -12 -58 c-19 -90 -17 -137 6 -162 11 -12 57 -33 103 -47 51
-15 97 -37 121 -57 52 -43 106 -129 136 -216 14 -40 27 -72 30 -72 4 0 16 18
29 40 24 44 56 70 83 70 28 0 58 -37 58 -71 0 -28 2 -30 16 -18 23 19 63 102
70 147 7 47 -8 82 -38 82 -12 0 -47 -25 -82 -57 -45 -44 -61 -54 -64 -41 -4
21 34 93 103 190 70 99 83 142 67 216 -14 68 -47 111 -131 172 -33 25 -83 75
-110 111 -101 135 -169 166 -329 148 -78 -9 -112 -5 -164 16 -15 6 -18 2 -18
-26z m258 -129 c7 0 12 14 12 34 0 47 17 54 38 16 46 -85 73 -100 88 -49 12
41 27 38 38 -6 5 -23 20 -45 42 -61 19 -15 32 -30 29 -34 -3 -5 -25 -8 -49 -7
-36 2 -50 -3 -73 -26 -48 -45 -73 -28 -33 23 11 14 20 28 20 33 0 16 -57 5
-95 -18 -22 -13 -48 -25 -57 -25 -24 0 -23 27 2 40 11 6 20 18 20 27 0 13 -10
15 -69 9 -43 -4 -72 -3 -75 3 -8 12 25 31 53 31 23 0 27 20 11 51 -22 40 3 40
44 0 23 -23 47 -41 54 -41z"/>
<path d="M3082 3644 c-55 -23 -62 -94 -14 -130 70 -53 164 54 100 113 -33 29
-50 33 -86 17z"/>
<path d="M1230 3588 c-32 -73 -24 -141 19 -180 49 -44 107 -35 136 22 31 60 8
133 -58 181 -57 41 -71 38 -97 -23z"/>
<path d="M1737 3613 c-9 -11 -18 -48 -23 -93 -6 -61 -9 -71 -18 -56 -29 49
-89 117 -116 131 -65 34 -120 5 -120 -62 l0 -38 48 3 c41 3 55 -1 97 -31 64
-44 72 -69 18 -56 -21 5 -61 9 -90 9 -41 0 -58 -5 -83 -26 -40 -34 -60 -74
-60 -119 l0 -36 33 34 c43 46 108 78 173 84 30 3 54 3 54 1 0 -3 -7 -19 -15
-34 -8 -16 -17 -45 -21 -64 -3 -19 -10 -45 -16 -58 -9 -17 -8 -34 5 -76 10
-31 15 -66 11 -83 -4 -23 1 -43 20 -75 14 -25 26 -55 26 -67 0 -25 81 -111
105 -111 8 0 21 10 29 22 14 19 13 23 -5 47 -46 59 -67 100 -73 144 -4 25 -14
51 -22 58 -12 10 -14 25 -9 71 5 40 3 63 -5 73 -9 11 -6 26 16 72 16 32 30 60
32 62 1 3 18 -10 37 -29 42 -41 59 -88 52 -146 l-5 -45 42 25 c56 33 81 68 81
117 0 33 -6 46 -32 69 -17 16 -49 31 -72 35 -23 4 -41 10 -41 15 0 4 31 13 68
20 86 14 148 2 180 -36 29 -33 42 -20 42 42 0 63 -34 89 -115 89 -52 0 -74 -6
-134 -37 -39 -20 -71 -34 -71 -31 0 27 58 93 82 93 27 0 22 22 -14 63 -41 44
-69 53 -91 30z"/>
<path d="M2920 3500 c-45 -45 -13 -123 50 -123 43 0 70 28 70 74 0 28 -6 42
-22 53 -31 22 -74 20 -98 -4z"/>
<path d="M2766 3419 c-32 -25 -35 -70 -6 -99 29 -29 74 -26 100 7 25 32 20 69
-12 96 -27 22 -49 22 -82 -4z"/>
<path d="M1167 3292 c-9 -10 -35 -72 -57 -137 -45 -130 -54 -145 -71 -128 -9
9 -8 38 6 116 17 102 16 137 -4 137 -21 0 -42 -50 -60 -137 -26 -126 -34 -140
-61 -108 -7 9 -11 41 -10 82 3 101 3 101 -20 78 -36 -37 -52 -133 -48 -289 2
-116 6 -148 23 -181 26 -53 50 -52 92 3 37 49 42 85 16 129 -19 35 -12 78 17
93 17 9 26 4 65 -37 59 -62 57 -82 -28 -207 -88 -129 -111 -188 -111 -296 0
-130 34 -194 151 -281 29 -22 54 -39 56 -39 3 0 10 19 17 43 16 60 -1 97 -83
179 -73 72 -92 117 -78 179 14 59 20 64 51 34 15 -14 44 -28 64 -32 l37 -6
-22 42 c-32 62 -22 109 65 286 108 218 155 351 141 396 -10 29 -34 23 -49 -13
-55 -126 -80 -176 -98 -195 -45 -48 -49 -20 -13 88 47 138 58 190 42 206 -11
12 -16 11 -30 -5z"/>
<path d="M3057 3278 c-26 -21 -38 -63 -26 -98 13 -36 36 -50 83 -50 68 0 101
86 51 135 -27 28 -80 34 -108 13z"/>
<path d="M2024 3214 c1 -49 -8 -60 -138 -167 -76 -64 -61 -108 64 -190 44 -29
65 -49 65 -62 0 -29 -38 -31 -82 -4 l-36 22 -23 -26 c-48 -56 -50 -163 -4
-230 48 -70 155 -123 232 -115 l33 3 -32 18 c-39 21 -65 67 -65 113 0 21 18
66 47 119 56 103 55 121 -11 181 -24 23 -44 51 -44 61 0 11 18 46 41 77 24 34
43 73 46 94 5 44 -20 95 -64 129 l-30 23 1 -46z"/>
<path d="M1451 3205 c-97 -90 -141 -191 -141 -319 0 -129 -30 -178 -90 -146
-28 15 -33 9 -25 -29 12 -55 74 -68 122 -27 28 24 28 26 33 168 4 97 11 151
20 168 14 24 15 23 21 -40 4 -36 13 -83 22 -106 23 -62 39 -153 33 -180 -9
-33 -40 -48 -60 -28 -15 14 -17 14 -22 -1 -10 -24 12 -64 41 -75 51 -19 105
25 105 88 0 18 -19 90 -42 160 -44 132 -55 233 -31 276 9 16 12 7 22 -50 14
-77 61 -184 145 -323 65 -110 73 -154 30 -173 -24 -11 -29 -9 -50 15 -23 27
-23 27 -34 7 -26 -49 22 -120 81 -120 94 0 138 94 88 191 -11 22 -54 91 -96
152 -42 62 -87 137 -101 167 -29 64 -39 167 -23 224 6 22 9 42 6 44 -2 2 -26
-17 -54 -43z"/>
<path d="M2746 3187 c-34 -91 -14 -151 67 -197 92 -52 122 -104 75 -133 -13
-9 -25 -3 -57 26 -69 62 -91 47 -91 -60 0 -47 -6 -85 -15 -103 -14 -27 -14
-30 0 -30 33 0 82 30 130 79 27 28 55 51 62 51 23 0 24 -20 2 -58 -30 -51 -21
-88 26 -108 39 -16 81 -10 89 13 4 9 -7 37 -25 64 -41 64 -34 81 28 77 l48 -3
-3 -37 c-3 -34 0 -38 20 -38 39 0 142 30 157 45 13 13 9 20 -32 60 -26 24 -65
54 -87 65 l-40 20 0 -35 c0 -36 -7 -40 -55 -35 -27 3 -55 29 -55 52 0 27 42
62 89 77 23 6 52 22 67 34 l26 23 -70 27 c-113 44 -132 36 -132 -55 0 -51 -2
-58 -19 -58 -26 0 -35 31 -26 87 10 67 -7 98 -72 129 -30 15 -60 36 -66 46
-17 26 -22 23 -41 -25z"/>
<path d="M3258 3010 c-3 -44 -4 -45 -40 -48 -21 -2 -38 -7 -38 -11 0 -4 18
-18 41 -30 143 -81 160 -170 45 -233 -28 -14 -69 -29 -93 -33 -51 -7 -56 -21
-10 -30 48 -11 49 -13 27 -56 -21 -41 -17 -49 16 -24 30 23 53 18 60 -12 4
-16 9 -32 12 -37 9 -15 21 25 21 72 1 53 20 100 54 131 30 28 53 23 67 -14 16
-41 12 -80 -15 -151 -14 -37 -23 -69 -20 -72 3 -3 15 4 28 16 31 29 37 28 75
-15 l33 -38 -6 52 c-6 56 -7 55 59 65 15 2 6 12 -35 39 -87 58 -127 156 -68
167 27 5 79 -38 117 -95 l37 -58 5 40 c5 39 6 40 50 45 l45 5 -37 22 c-44 26
-46 34 -17 75 12 16 19 31 17 34 -3 2 -26 -5 -51 -16 -63 -28 -136 -36 -161
-18 -41 31 9 78 103 99 47 10 62 29 23 29 -9 0 -24 4 -32 10 -12 8 -12 14 3
46 22 45 18 50 -16 24 -33 -27 -53 -25 -73 5 -9 14 -20 25 -24 25 -5 0 -6 -36
-3 -79 6 -76 5 -80 -21 -106 -26 -26 -28 -26 -47 -9 -22 20 -24 62 -7 146 7
31 9 61 5 64 -4 4 -21 -6 -38 -22 l-30 -29 -29 35 -29 35 -3 -45z"/>
<path d="M3844 2720 c-47 -18 -68 -85 -43 -132 10 -18 9 -19 -13 -12 -12 5
-40 9 -62 8 -46 0 -76 -30 -76 -76 0 -47 17 -67 86 -100 73 -35 114 -77 114
-116 1 -27 1 -27 37 13 101 113 125 313 46 387 -34 31 -61 40 -89 28z"/>
<path d="M2141 2656 c-7 -9 -16 -36 -18 -60 -6 -48 1 -57 77 -115 40 -30 36
-58 -10 -85 -28 -17 -51 -21 -115 -20 -87 1 -143 21 -192 70 -38 38 -57 28
-61 -31 -4 -64 21 -127 72 -183 72 -78 165 -106 279 -82 113 23 197 124 197
236 0 91 -26 129 -115 169 -57 26 -83 51 -93 90 -7 24 -9 26 -21 11z"/>
<path d="M2695 2616 c-104 -33 -183 -100 -231 -196 -37 -73 -44 -183 -19 -261
35 -106 92 -173 185 -218 48 -22 68 -26 150 -26 78 0 104 4 145 23 92 42 165
136 184 235 l8 43 -56 -19 c-82 -28 -221 -28 -284 1 -26 12 -61 30 -76 42 -40
28 -48 25 -55 -15 -5 -26 -12 -35 -26 -35 -54 0 7 -81 71 -95 38 -8 107 1 156
21 40 17 59 5 42 -27 -12 -24 -12 -26 12 -32 13 -4 20 -12 17 -24 -9 -50 -152
-64 -245 -23 -95 41 -154 133 -139 214 10 55 51 93 126 119 70 24 88 49 54 74
-18 14 -18 15 0 29 12 8 44 14 82 14 42 0 65 5 74 15 18 22 5 45 -30 51 -16 4
-30 10 -30 15 0 12 35 29 59 29 14 0 21 6 21 19 0 38 -112 53 -195 27z"/>
<path d="M2963 2571 c9 -24 8 -41 -2 -73 -39 -133 -39 -161 4 -204 18 -18 35
-24 68 -24 154 0 147 225 -8 303 -16 8 -40 17 -52 21 -20 7 -21 5 -10 -23z"/>
<path d="M1211 2544 c-12 -15 -21 -41 -21 -58 0 -26 -5 -34 -30 -43 -83 -31
-48 -150 42 -142 25 2 40 -4 60 -24 53 -53 138 -21 138 53 0 32 4 39 25 44 16
4 32 20 42 42 16 32 16 38 2 62 -20 36 -64 57 -92 45 -18 -8 -27 -5 -48 19
-36 38 -89 39 -118 2z"/>
<path d="M3205 2451 c3 -11 -2 -45 -11 -77 -15 -54 -15 -57 3 -83 15 -19 30
-27 61 -29 53 -4 82 25 82 81 0 50 -29 90 -80 111 -52 21 -63 20 -55 -3z"/>
<path d="M1534 2377 c-37 -33 -26 -57 37 -75 78 -23 148 -63 169 -97 11 -18
24 -56 30 -85 13 -70 28 -98 72 -133 42 -34 128 -48 167 -28 29 16 28 67 -4
114 -31 45 -71 67 -124 67 -61 0 -69 7 -90 76 -26 82 -42 112 -80 148 -25 24
-42 30 -89 34 -52 4 -62 1 -88 -21z"/>
<path d="M3496 2366 c-23 -9 -66 -43 -110 -89 -54 -56 -83 -78 -121 -91 -87
-30 -100 -39 -98 -70 7 -93 78 -72 220 66 71 68 95 79 101 44 6 -28 -23 -61
-107 -125 -44 -34 -83 -70 -86 -82 -13 -39 67 -99 132 -99 46 0 87 34 149 119
31 45 64 81 71 81 26 0 25 -30 -1 -84 -31 -62 -75 -105 -146 -141 -55 -28 -64
-51 -30 -85 35 -35 58 -25 149 68 62 62 96 107 120 155 30 62 33 75 29 141 -2
58 -9 81 -30 113 -47 72 -161 109 -242 79z"/>
<path d="M1433 2219 c-44 -13 -91 -63 -99 -105 -22 -120 72 -233 194 -234 64
0 97 19 113 67 24 73 -42 168 -113 161 -27 -2 -34 -8 -36 -30 -3 -21 3 -30 27
-42 16 -9 44 -16 61 -16 34 0 40 -18 12 -43 -40 -37 -127 -12 -162 46 -23 37
-25 56 -9 90 23 50 105 62 171 25 59 -33 93 -97 93 -173 -1 -73 -20 -107 -76
-129 -113 -45 -257 18 -310 136 -18 41 -23 71 -24 131 0 42 -3 77 -6 77 -13 0
-59 -58 -73 -92 -51 -120 35 -287 181 -356 49 -23 72 -27 143 -27 98 0 146 18
185 69 40 52 51 114 37 198 -23 131 -92 218 -195 245 -58 15 -69 15 -114 2z"/>
<path d="M2284 2135 c-4 -8 -3 -30 0 -49 11 -57 1 -66 -43 -44 -35 17 -42 18
-73 5 -27 -11 -42 -29 -68 -81 -41 -83 -69 -101 -152 -93 -34 3 -58 1 -58 -4
0 -29 34 -69 75 -89 39 -19 58 -22 119 -18 133 9 230 84 225 175 -4 52 10 70
39 54 44 -23 83 -4 61 30 -5 8 -6 28 -3 46 5 25 2 33 -15 43 -12 6 -26 8 -32
4 -6 -3 -17 3 -25 15 -18 25 -42 27 -50 6z"/>
<path d="M3085 1961 c-70 -18 -95 -50 -81 -105 8 -33 61 -49 142 -44 81 5 118
29 122 81 3 29 -2 39 -22 52 -28 19 -117 28 -161 16z"/>
<path d="M2406 1872 c-34 -80 -105 -135 -213 -162 -24 -6 -43 -15 -43 -20 0
-4 -12 -22 -26 -39 -29 -35 -76 -47 -131 -34 -33 8 -39 14 -55 58 -16 44 -90
135 -110 135 -4 0 -8 -17 -8 -37 0 -82 -67 -135 -171 -137 -55 -1 -57 -2 -41
-20 37 -40 115 -75 185 -82 60 -6 79 -13 144 -56 128 -83 158 -92 313 -93 132
0 136 1 204 33 38 18 70 31 71 30 1 -2 7 -13 14 -25 6 -12 27 -27 47 -33 72
-24 220 9 212 47 -2 12 -19 16 -83 17 -105 2 -169 34 -221 113 -19 29 -38 53
-42 53 -4 0 -34 -20 -66 -44 -33 -24 -83 -52 -112 -61 -64 -20 -192 -22 -230
-3 -46 22 -39 33 19 30 121 -8 233 32 331 118 73 64 88 65 120 3 23 -45 74
-101 107 -119 37 -19 103 -18 124 2 22 22 41 61 54 112 9 31 19 46 37 52 35
14 42 39 16 59 -11 9 -24 29 -28 44 -8 36 -33 46 -50 22 -12 -16 -19 -17 -75
-6 -34 7 -82 10 -108 6 -41 -6 -49 -3 -71 20 -14 15 -41 35 -60 45 l-36 18
-18 -46z"/>
<path d="M3258 1793 c-77 -41 -177 -55 -244 -33 -38 13 -38 13 -74 -28 -64
-71 -80 -179 -35 -225 31 -30 64 -36 148 -26 177 21 323 129 334 246 4 39 1
53 -17 76 -12 15 -27 27 -33 26 -7 -1 -42 -17 -79 -36z m8 -87 c3 -8 -2 -30
-11 -49 -18 -38 -86 -81 -148 -92 l-38 -7 7 42 c4 23 7 51 8 63 1 19 9 23 57
28 30 3 64 11 75 17 26 16 44 15 50 -2z"/>
<path d="M2307 1050 c-62 -49 -117 -222 -117 -370 0 -79 19 -200 40 -254 10
-26 8 -32 -17 -58 -55 -58 -123 -74 -183 -43 -48 25 -55 48 -55 182 0 137 -10
162 -59 149 -35 -9 -62 -65 -74 -154 -15 -105 -63 -165 -115 -141 -33 15 -51
49 -91 174 -36 110 -57 145 -86 145 -19 0 -69 -51 -134 -137 -25 -34 -51 -65
-57 -69 -16 -10 -36 26 -50 89 -6 32 -16 60 -21 63 -16 10 -55 -24 -62 -53 -4
-15 -25 -97 -48 -181 -37 -138 -40 -155 -26 -169 25 -24 49 -10 180 109 68 60
136 117 152 125 48 25 71 6 122 -101 24 -51 53 -105 65 -120 35 -45 78 -33
124 36 36 54 66 88 77 88 4 0 24 -24 43 -54 49 -77 77 -96 139 -96 55 0 116
23 170 65 42 32 56 32 91 -5 61 -64 124 -74 218 -36 l59 24 36 -25 c33 -22 45
-24 102 -20 105 7 169 46 273 166 46 53 57 47 88 -47 38 -114 93 -146 177
-103 44 23 69 49 111 116 61 96 104 284 78 335 -28 55 -95 23 -117 -55 -11
-38 -11 -59 0 -113 26 -140 -46 -256 -109 -175 -20 24 -35 69 -90 260 -12 40
-26 75 -31 78 -23 14 -50 -20 -86 -112 -49 -124 -106 -211 -159 -240 -45 -25
-98 -29 -133 -9 -23 12 -23 13 31 54 72 54 101 101 99 163 -1 54 -12 81 -50
122 -66 71 -188 -10 -236 -156 -9 -26 -16 -81 -16 -121 0 -58 -3 -75 -16 -80
-24 -9 -63 -7 -87 5 -35 18 -87 71 -87 90 0 9 20 59 44 110 53 111 76 215 76
336 0 111 -13 158 -55 200 -39 39 -88 44 -128 13z m94 -141 c41 -78 -10 -377
-68 -396 -23 -8 -35 70 -31 208 5 156 20 209 62 209 16 0 30 -8 37 -21z m356
-374 c21 -45 6 -103 -38 -139 -38 -33 -44 -32 -58 2 -32 78 -2 172 55 172 18
0 29 -9 41 -35z"/>
<path d="M1906 1009 c-49 -57 -26 -139 39 -139 68 0 113 102 65 150 -30 30
-73 26 -104 -11z"/>
<path d="M987 979 c-22 -13 -47 -68 -47 -102 0 -14 11 -59 25 -101 41 -127 28
-297 -32 -407 -40 -74 -73 -94 -155 -94 -60 0 -70 3 -99 30 -58 54 -73 104
-77 255 -3 103 1 163 16 256 23 138 21 164 -15 164 -68 0 -105 -55 -132 -195
-7 -33 -16 -82 -22 -108 -18 -94 -12 -152 29 -287 25 -82 96 -151 184 -179 72
-22 127 -27 156 -12 9 5 38 17 64 26 57 20 130 95 164 170 43 93 56 183 52
355 -5 182 -21 240 -67 240 -14 0 -34 -5 -44 -11z"/>
<path d="M4329 697 c-57 -30 -110 -101 -155 -207 -20 -47 -40 -89 -45 -95 -21
-21 -41 25 -58 134 -10 61 -22 116 -27 121 -20 20 -52 -20 -79 -99 -33 -101
-92 -192 -146 -228 -52 -34 -137 -40 -166 -11 -15 16 -15 20 -3 31 8 8 38 22
65 32 109 40 157 127 116 211 -64 132 -213 104 -297 -56 -14 -26 -18 -58 -19
-127 0 -99 10 -123 68 -167 42 -31 140 -34 205 -6 56 24 149 115 173 169 8 17
17 31 21 31 7 0 19 -40 33 -109 9 -45 32 -98 45 -106 6 -4 21 -4 34 -1 17 4
39 40 97 163 107 227 172 288 227 213 42 -56 132 -28 132 41 0 18 -11 37 -35
58 -30 26 -44 31 -89 31 -36 0 -67 -7 -97 -23z m-607 -134 c29 -26 24 -84 -9
-115 -33 -30 -65 -48 -87 -48 -21 0 -22 99 -1 140 22 42 64 53 97 23z"/>
</g>
</svg>
