<?xml version="1.0" standalone="no"?>
<!DOCTYPE svg PUBLIC "-//W3C//DTD SVG 20010904//EN"
 "http://www.w3.org/TR/2001/REC-SVG-20010904/DTD/svg10.dtd">
<svg version="1.0" xmlns="http://www.w3.org/2000/svg"
 width="195.000000pt" height="195.000000pt" viewBox="0 0 195.000000 195.000000"
 preserveAspectRatio="xMidYMid meet">
<metadata>
Created by potrace 1.16, written by Peter Selinger 2001-2019
</metadata>
<g transform="translate(0.000000,195.000000) scale(0.100000,-0.100000)"
fill="#000000" stroke="none">
<path d="M462 1054 c-17 -12 -22 -24 -20 -47 3 -27 9 -34 45 -47 59 -22 71
-35 43 -50 -16 -8 -30 -9 -53 -1 -23 9 -33 8 -38 -1 -20 -32 70 -50 120 -24
27 15 32 22 29 49 -3 29 -9 34 -56 51 -38 13 -52 23 -50 35 3 12 14 15 51 14
35 -2 47 1 47 11 0 29 -81 36 -118 10z"/>
<path d="M254 1017 c-69 -51 -139 -125 -149 -157 -9 -29 15 -50 56 -50 33 0
174 44 209 66 l25 15 -25 -8 c-46 -15 -142 -10 -153 8 -17 27 1 66 54 119 29
27 49 50 46 50 -2 0 -31 -20 -63 -43z"/>
<path d="M635 987 c-36 -51 0 -126 53 -112 15 3 39 6 55 5 27 0 27 0 27 63 l0
64 -60 1 c-50 1 -62 -2 -75 -21z"/>
<path d="M926 991 c-22 -25 -20 -77 4 -101 21 -21 55 -27 65 -10 3 5 19 7 35
3 l30 -5 0 64 0 65 -59 1 c-44 1 -63 -4 -75 -17z"/>
<path d="M1468 993 c-23 -27 -28 -51 -18 -78 18 -47 86 -58 124 -19 22 21 20
77 -2 97 -25 22 -85 22 -104 0z"/>
<path d="M1622 941 c3 -59 5 -66 25 -69 20 -3 22 2 25 50 3 45 6 53 23 53 17
0 20 -8 23 -52 3 -44 6 -53 22 -53 16 0 19 9 22 53 3 44 6 52 23 52 17 0 20
-8 23 -47 3 -40 6 -48 23 -48 16 0 19 7 19 49 0 27 -3 56 -6 65 -7 18 -46 21
-74 6 -12 -6 -21 -6 -25 -1 -3 6 -33 9 -66 9 l-60 -1 3 -66z"/>
</g>
</svg>
